<?xml version="1.0" encoding="utf-8"?>
<!-- Generator: Adobe Illustrator 16.0.3, SVG Export Plug-In . SVG Version: 6.00 Build 0)  -->
<!DOCTYPE svg PUBLIC "-//W3C//DTD SVG 1.1//EN" "http://www.w3.org/Graphics/SVG/1.1/DTD/svg11.dtd">
<svg version="1.1" id="Capa_1" xmlns="http://www.w3.org/2000/svg" xmlns:xlink="http://www.w3.org/1999/xlink" x="0px" y="0px"
	 width="64px" height="64px" viewBox="0 0 64 64" enable-background="new 0 0 64 64" xml:space="preserve">
<g>
	<path fill-rule="evenodd" clip-rule="evenodd" fill="#FFFFFF" d="M31.037,32.285c0-0.747,0-1.495,0-2.246c0.744,0,1.49,0,2.242,0
		c0,0.746,0,1.496,0,2.246C32.536,32.285,31.788,32.285,31.037,32.285z M32.16,32.003c0.205,0,0.41,0,0.615,0
		c0.151,0,0.229-0.073,0.229-0.225c0-0.416,0.001-0.832,0-1.247c0-0.143-0.077-0.215-0.22-0.215c-0.416,0-0.832,0-1.247,0
		c-0.143,0-0.218,0.071-0.219,0.215c-0.001,0.416,0,0.831,0,1.247c0,0.153,0.078,0.225,0.228,0.225
		C31.75,32.003,31.955,32.003,32.16,32.003z"/>
	<path fill-rule="evenodd" clip-rule="evenodd" d="M32.16,32.003c-0.205,0-0.41,0-0.615,0c-0.15,0-0.228-0.072-0.228-0.225
		c0-0.416,0-0.831,0-1.247c0-0.144,0.076-0.215,0.219-0.215c0.416,0,0.832,0,1.247,0c0.143,0,0.219,0.072,0.22,0.215
		c0.001,0.416,0,0.832,0,1.247c0,0.152-0.078,0.225-0.229,0.225C32.569,32.003,32.365,32.003,32.16,32.003z M31.889,31.626
		c0.064-0.004,0.114-0.008,0.179-0.013c0-0.121,0-0.23,0-0.346c0.096-0.008,0.175-0.014,0.264-0.021c0-0.061,0-0.114,0-0.152
		c-0.091-0.075-0.326,0.063-0.247-0.207c0.117-0.006,0.231-0.012,0.356-0.018c-0.004-0.065-0.008-0.114-0.012-0.166
		c-0.186,0-0.359,0-0.541,0C31.889,31.009,31.889,31.304,31.889,31.626z"/>
	<path fill-rule="evenodd" clip-rule="evenodd" fill="#FFFFFF" d="M31.889,31.626c0-0.322,0-0.618,0-0.923c0.182,0,0.355,0,0.541,0
		c0.004,0.052,0.007,0.101,0.012,0.166c-0.125,0.006-0.239,0.012-0.356,0.018c-0.08,0.269,0.156,0.132,0.247,0.207
		c0,0.039,0,0.092,0,0.152c-0.088,0.007-0.168,0.014-0.264,0.021c0,0.116,0,0.225,0,0.346
		C32.002,31.619,31.953,31.622,31.889,31.626z"/>
</g>
</svg>
